<?xml version="1.0" encoding="UTF-8"?>
<svg id="Capa_1" data-name="Capa 1" xmlns="http://www.w3.org/2000/svg" viewBox="0 0 517.05 650.94">
  <path fill="#ffffff" d="M356.51,226.1c35.44,145,49.31,201.57,79.16,329.68,23.35,62.96,29.88,68.74,81.34,74.4l.05,20.28-178.93.48-.05-20.28c47.07-5.92,70.82-17.98,65.57-46.84-5.36-29.46-13.77-59.83-23.65-111.05l-45.46-183.89-197.13,280.84c-40.86,61.99,32.93,51.04,32.93,51.04v30.18H.09v-30.17s-3.18.54,27.51,1.27c30.69.73,73.87-65.62,73.87-65.62l229.11-330.31h25.92"/>
  <path fill="#ffffff" d="M467.66,363.65c-5.07,24.63-22.46,92.73-29.7,123.88H61.26l-6.51-11.59C155.44,336.85,256.13,192.7,358.27,45.64h-142.71c-64.47,0-75.34,4.35-90.55,26.81-7.25,9.42-18.11,33.32-27.53,60.85l-21.73-.72c3.62-37.67,12.32-100.69,13.76-132.57h18.84c7.97,17.38,16.66,16.66,38.39,16.66h292.67l5.79,11.59c-100.69,141.26-198.49,281.8-298.46,428.13,22.46,1.45,69.55,2.17,118.8,2.17,94.9,0,116.63-3.62,136.91-26.07,15.22-15.22,31.15-43.47,44.19-73.89l21.01,5.07Z"/>
</svg>
